<svg xmlns="http://www.w3.org/2000/svg" viewBox="0 0 128 128" fill="none">
  <defs>
    <linearGradient id="paper" x1="24" y1="42" x2="104" y2="108" gradientUnits="userSpaceOnUse">
      <stop stop-color="#FFFDF7"/>
      <stop offset="1" stop-color="#F6F1E3"/>
    </linearGradient>
    <linearGradient id="soil" x1="30" y1="32" x2="98" y2="56" gradientUnits="userSpaceOnUse">
      <stop stop-color="#5E4228"/>
      <stop offset="1" stop-color="#3E2A18"/>
    </linearGradient>
    <linearGradient id="leafA" x1="54" y1="12" x2="72" y2="42" gradientUnits="userSpaceOnUse">
      <stop stop-color="#D5F06B"/>
      <stop offset="1" stop-color="#90B53A"/>
    </linearGradient>
    <linearGradient id="leafB" x1="66" y1="8" x2="95" y2="36" gradientUnits="userSpaceOnUse">
      <stop stop-color="#DDF56C"/>
      <stop offset="1" stop-color="#9CBC43"/>
    </linearGradient>
    <linearGradient id="stem" x1="64" y1="28" x2="64" y2="62" gradientUnits="userSpaceOnUse">
      <stop stop-color="#86A83C"/>
      <stop offset="1" stop-color="#6F8F2E"/>
    </linearGradient>
  </defs>
  <path d="M41 28c8-4 20-2 26 6-12 4-22 2-26-6Z" fill="url(#leafA)" stroke="#33441A" stroke-width="2.2" stroke-linejoin="round"/>
  <path d="M84 16c-2 11-10 21-24 24 1-15 10-24 24-24Z" fill="url(#leafB)" stroke="#33441A" stroke-width="2.2" stroke-linejoin="round"/>
  <path d="M63 57c0-14 2-23 8-32" stroke="#33441A" stroke-width="2.4" stroke-linecap="round"/>
  <path d="M63 57c-1-9-5-17-12-22" stroke="#33441A" stroke-width="2.4" stroke-linecap="round"/>
  <path d="M60 61c0-11 1-21 2-30" stroke="url(#stem)" stroke-width="6" stroke-linecap="round"/>
  <path d="M28 50h72c5 0 9 4 9 9v35c0 7-6 13-13 13H32c-7 0-13-6-13-13V59c0-5 4-9 9-9Z" fill="url(#paper)" stroke="#4A2E18" stroke-width="2.6"/>
  <path d="M28 50h72l-4-9H32l-4 9Z" fill="url(#soil)" stroke="#4A2E18" stroke-width="2.6" stroke-linejoin="round"/>
  <path d="M31 44c0-4 3-7 7-7s7 3 7 7v9c0 4-3 7-7 7s-7-3-7-7v-9Zm25 0c0-4 3-7 7-7s7 3 7 7v9c0 4-3 7-7 7s-7-3-7-7v-9Zm25 0c0-4 3-7 7-7s7 3 7 7v9c0 4-3 7-7 7s-7-3-7-7v-9Z" fill="#E9C98A"/>
  <path d="M38 44v9m25-9v9m25-9v9" stroke="#4A2E18" stroke-width="2.4" stroke-linecap="round"/>
  <g fill="#D8E68B">
    <rect x="33" y="61" width="12" height="10" rx="1.5"/>
    <rect x="49" y="61" width="12" height="10" rx="1.5"/>
    <rect x="65" y="61" width="12" height="10" rx="1.5"/>
    <rect x="81" y="61" width="12" height="10" rx="1.5"/>
    <rect x="33" y="75" width="12" height="10" rx="1.5"/>
    <rect x="49" y="75" width="12" height="10" rx="1.5"/>
    <rect x="65" y="75" width="12" height="10" rx="1.5"/>
    <rect x="81" y="75" width="12" height="10" rx="1.5"/>
  </g>
  <g fill="#8DA34A">
    <rect x="65" y="75" width="12" height="10" rx="1.5"/>
    <rect x="81" y="75" width="12" height="10" rx="1.5"/>
    <rect x="65" y="61" width="12" height="10" rx="1.5"/>
  </g>
</svg>
